<svg width="150" height="107" viewBox="0 0 150 107" fill="none" xmlns="http://www.w3.org/2000/svg">
<rect y="77" width="150" height="30" fill="#5C4033"/>
<rect x="30" y="39" width="120" height="30" fill="#228B22"/>
<rect x="70" width="80" height="30" fill="#D4AF37"/>
<path d="M9.71413 101H5.59482L11.8714 82.8182H16.8253L23.093 101H18.9737L14.4194 86.973H14.2773L9.71413 101ZM9.45668 93.8533H19.1868V96.854H9.45668V93.8533Z" fill="white"/>
<path d="M55.2884 53.9091C55.2884 55.8918 54.9125 57.5786 54.1609 58.9695C53.4151 60.3603 52.3971 61.4227 51.1069 62.1566C49.8226 62.8846 48.3784 63.2486 46.7745 63.2486C45.1587 63.2486 43.7087 62.8816 42.4244 62.1477C41.14 61.4138 40.125 60.3514 39.3793 58.9606C38.6335 57.5697 38.2607 55.8859 38.2607 53.9091C38.2607 51.9264 38.6335 50.2396 39.3793 48.8487C40.125 47.4579 41.14 46.3984 42.4244 45.6705C43.7087 44.9366 45.1587 44.5696 46.7745 44.5696C48.3784 44.5696 49.8226 44.9366 51.1069 45.6705C52.3971 46.3984 53.4151 47.4579 54.1609 48.8487C54.9125 50.2396 55.2884 51.9264 55.2884 53.9091ZM51.391 53.9091C51.391 52.6248 51.1986 51.5417 50.8139 50.6598C50.4351 49.7779 49.8995 49.1091 49.207 48.6534C48.5146 48.1977 47.7037 47.9698 46.7745 47.9698C45.8453 47.9698 45.0344 48.1977 44.342 48.6534C43.6495 49.1091 43.1109 49.7779 42.7262 50.6598C42.3474 51.5417 42.158 52.6248 42.158 53.9091C42.158 55.1934 42.3474 56.2765 42.7262 57.1584C43.1109 58.0402 43.6495 58.709 44.342 59.1648C45.0344 59.6205 45.8453 59.8484 46.7745 59.8484C47.7037 59.8484 48.5146 59.6205 49.207 59.1648C49.8995 58.709 50.4351 58.0402 50.8139 57.1584C51.1986 56.2765 51.391 55.1934 51.391 53.9091Z" fill="white"/>
<path d="M83.0256 24H76.5803V5.81818H83.0788C84.9077 5.81818 86.482 6.18217 87.8018 6.91016C89.1217 7.63222 90.1367 8.67093 90.8469 10.0263C91.5631 11.3816 91.9212 13.0033 91.9212 14.8913C91.9212 16.7853 91.5631 18.4129 90.8469 19.7741C90.1367 21.1354 89.1158 22.18 87.7841 22.908C86.4583 23.636 84.8722 24 83.0256 24ZM80.4244 20.7063H82.8658C84.0021 20.7063 84.958 20.5051 85.7333 20.1026C86.5146 19.6942 87.1005 19.0639 87.4911 18.2116C87.8877 17.3535 88.0859 16.2467 88.0859 14.8913C88.0859 13.5478 87.8877 12.4499 87.4911 11.5977C87.1005 10.7454 86.5175 10.118 85.7422 9.71555C84.9669 9.31309 84.011 9.11186 82.8746 9.11186H80.4244V20.7063Z" fill="white"/>
</svg>
